<svg width="281" height="257" viewBox="0 0 281 257" fill="none" xmlns="http://www.w3.org/2000/svg">
<mask id="path-1-inside-1_1189_1402" fill="white">
<path d="M0 40C0 17.9086 17.9086 0 40 0H241C263.091 0 281 17.9086 281 40V257H0V40Z"/>
</mask>
<path d="M0 40C0 17.9086 17.9086 0 40 0H241C263.091 0 281 17.9086 281 40V257H0V40Z" fill="#F4F7FF"/>
<path d="M-12 40C-12 11.2812 11.2812 -12 40 -12H241C269.719 -12 293 11.2812 293 40H269C269 24.536 256.464 12 241 12H40C24.536 12 12 24.536 12 40H-12ZM281 257H0H281ZM-12 257V40C-12 11.2812 11.2812 -12 40 -12V12C24.536 12 12 24.536 12 40V257H-12ZM241 -12C269.719 -12 293 11.2812 293 40V257H269V40C269 24.536 256.464 12 241 12V-12Z" fill="#0655FF" mask="url(#path-1-inside-1_1189_1402)"/>
</svg>
