<svg width="18" height="19" viewBox="0 0 18 19" fill="none" xmlns="http://www.w3.org/2000/svg">
<path d="M13.5 16.25V14.75C13.5 14.1533 13.2628 13.5811 12.8408 13.1592C12.4717 12.79 11.9876 12.5622 11.4727 12.511L11.25 12.5H6.75C6.15326 12.5 5.58114 12.7372 5.15918 13.1592C4.73722 13.5811 4.5 14.1533 4.5 14.75V16.25C4.5 16.6642 4.16421 17 3.75 17C3.33579 17 3 16.6642 3 16.25V14.75C3 13.7554 3.39537 12.8019 4.09863 12.0986C4.80189 11.3954 5.75544 11 6.75 11H11.25C12.2446 11 13.1981 11.3954 13.9014 12.0986C14.6046 12.8019 15 13.7554 15 14.75V16.25C15 16.6642 14.6642 17 14.25 17C13.8358 17 13.5 16.6642 13.5 16.25ZM11.25 5.75C11.25 4.50736 10.2426 3.5 9 3.5C7.75736 3.5 6.75 4.50736 6.75 5.75C6.75 6.99264 7.75736 8 9 8C10.2426 8 11.25 6.99264 11.25 5.75ZM12.75 5.75C12.75 7.82107 11.0711 9.5 9 9.5C6.92893 9.5 5.25 7.82107 5.25 5.75C5.25 3.67893 6.92893 2 9 2C11.0711 2 12.75 3.67893 12.75 5.75Z" fill="#666666"/>
</svg>
