<svg width="21" height="20" viewBox="0 0 21 20" fill="none" xmlns="http://www.w3.org/2000/svg">
<path d="M9.9739 3.52043C10.3012 3.25347 10.7837 3.2723 11.0888 3.57739L16.9221 9.41073C17.2476 9.73616 17.2476 10.2637 16.9221 10.5891C16.5967 10.9145 16.0692 10.9145 15.7438 10.5891L10.4996 5.34497L5.25547 10.5891C4.93003 10.9145 4.40252 10.9145 4.07709 10.5891C3.75165 10.2637 3.75165 9.73616 4.07709 9.41073L9.91042 3.57739L9.9739 3.52043Z" fill="white"/>
<path d="M9.66628 15.8333V4.16659C9.66628 3.70635 10.0394 3.33325 10.4996 3.33325C10.9598 3.33325 11.3329 3.70635 11.3329 4.16659V15.8333C11.3329 16.2935 10.9598 16.6666 10.4996 16.6666C10.0394 16.6666 9.66628 16.2935 9.66628 15.8333Z" fill="white"/>
</svg>
