<svg width="18" height="19" viewBox="0 0 18 19" fill="none" xmlns="http://www.w3.org/2000/svg">
<path d="M11.25 5V4.25H6.75V5C6.75 5.41421 6.41421 5.75 6 5.75C5.58579 5.75 5.25 5.41421 5.25 5V4.25H3.75C3.55109 4.25 3.36038 4.32907 3.21973 4.46973C3.07907 4.61038 3 4.80109 3 5V7.25H15V5C15 4.80109 14.9209 4.61038 14.7803 4.46973C14.6572 4.34662 14.4957 4.27068 14.324 4.25366L14.25 4.25H12.75V5C12.75 5.41421 12.4142 5.75 12 5.75C11.5858 5.75 11.25 5.41421 11.25 5ZM3 15.5C3 15.6989 3.07907 15.8896 3.21973 16.0303C3.36038 16.1709 3.55109 16.25 3.75 16.25H10.5V14C10.5 13.4033 10.7372 12.8311 11.1592 12.4092C11.5811 11.9872 12.1533 11.75 12.75 11.75H15V8.75H3V15.5ZM12 15.9395L14.6895 13.25H12.75C12.5511 13.25 12.3604 13.3291 12.2197 13.4697C12.0791 13.6104 12 13.8011 12 14V15.9395ZM16.5 13.25C16.5 13.4489 16.4209 13.6396 16.2803 13.7803L12.5303 17.5303C12.3896 17.6709 12.1989 17.75 12 17.75H3.75C3.15326 17.75 2.58114 17.5128 2.15918 17.0908C1.73722 16.6689 1.5 16.0967 1.5 15.5V5C1.5 4.40326 1.73722 3.83114 2.15918 3.40918C2.58114 2.98722 3.15326 2.75 3.75 2.75H5.25V2C5.25 1.58579 5.58579 1.25 6 1.25C6.41421 1.25 6.75 1.58579 6.75 2V2.75H11.25V2C11.25 1.58579 11.5858 1.25 12 1.25C12.4142 1.25 12.75 1.58579 12.75 2V2.75H14.25C14.8467 2.75 15.4189 2.98722 15.8408 3.40918C16.2628 3.83114 16.5 4.40326 16.5 5V13.25Z" fill="#666666"/>
</svg>
