<svg width="18" height="19" viewBox="0 0 18 19" fill="none" xmlns="http://www.w3.org/2000/svg">
<path d="M4.58936 3.43261C6.03396 2.38005 7.80689 1.8779 9.58887 2.01684C11.371 2.15587 13.0453 2.9267 14.3093 4.19067C15.5733 5.45465 16.3441 7.129 16.4832 8.91113C16.6221 10.6931 16.1199 12.466 15.0674 13.9106C14.0147 15.3553 12.4807 16.3768 10.7417 16.7905C9.10814 17.1791 7.3949 17.0071 5.87476 16.3086L1.74097 17.7104C1.47063 17.8021 1.17157 17.7321 0.969729 17.5303C0.767898 17.3284 0.697915 17.0294 0.789553 16.759L2.19068 12.6245C1.49251 11.1046 1.32092 9.39154 1.70947 7.7583C2.1232 6.01929 3.14465 4.48528 4.58936 3.43261ZM9.47241 3.51245C8.04681 3.40126 6.62837 3.80272 5.47266 4.64477C4.31689 5.4869 3.49944 6.71426 3.16846 8.10546C2.83752 9.49661 3.01458 10.9603 3.66724 12.2327C3.75983 12.4132 3.77553 12.6235 3.71045 12.8157L2.69824 15.801L5.68433 14.7895L5.75684 14.769C5.92837 14.7296 6.1093 14.7517 6.26734 14.8328C7.53968 15.4854 9.00338 15.6625 10.3945 15.3315C11.7857 15.0006 13.0131 14.1831 13.8552 13.0273C14.6973 11.8716 15.0987 10.4532 14.9875 9.02758C14.8763 7.60188 14.26 6.2624 13.2488 5.25121C12.2376 4.24004 10.8981 3.62367 9.47241 3.51245Z" fill="#666666"/>
</svg>
