<svg width="18" height="19" viewBox="0 0 18 19" fill="none" xmlns="http://www.w3.org/2000/svg">
<path d="M6.00732 11.75C6.42154 11.75 6.75732 12.0858 6.75732 12.5C6.75732 12.9142 6.42154 13.25 6.00732 13.25H6C5.58579 13.25 5.25 12.9142 5.25 12.5C5.25 12.0858 5.58579 11.75 6 11.75H6.00732ZM12 11.75C12.4142 11.75 12.75 12.0858 12.75 12.5C12.75 12.9142 12.4142 13.25 12 13.25H9C8.58579 13.25 8.25 12.9142 8.25 12.5C8.25 12.0858 8.58579 11.75 9 11.75H12ZM6.00732 8C6.42154 8 6.75732 8.33579 6.75732 8.75C6.75732 9.16421 6.42154 9.5 6.00732 9.5H6C5.58579 9.5 5.25 9.16421 5.25 8.75C5.25 8.33579 5.58579 8 6 8H6.00732ZM12 8C12.4142 8 12.75 8.33579 12.75 8.75C12.75 9.16421 12.4142 9.5 12 9.5H9C8.58579 9.5 8.25 9.16421 8.25 8.75C8.25 8.33579 8.58579 8 9 8H12ZM11.25 2.75H6.75V4.25H11.25V2.75ZM12.75 4.25C12.75 5.07843 12.0784 5.75 11.25 5.75H6.75C5.92157 5.75 5.25 5.07843 5.25 4.25H4.5C4.30109 4.25 4.11038 4.32907 3.96973 4.46973C3.82907 4.61038 3.75 4.80109 3.75 5V15.5L3.75366 15.574C3.77068 15.7457 3.84662 15.9072 3.96973 16.0303C4.11038 16.1709 4.30109 16.25 4.5 16.25H13.5C13.6989 16.25 13.8896 16.1709 14.0303 16.0303C14.1709 15.8896 14.25 15.6989 14.25 15.5V5C14.25 4.80109 14.1709 4.61038 14.0303 4.46973C13.9072 4.34662 13.7457 4.27068 13.574 4.25366L13.5 4.25H12.75ZM13.5 2.75C14.0967 2.75 14.6689 2.98722 15.0908 3.40918C15.5128 3.83114 15.75 4.40326 15.75 5V15.5C15.75 16.0967 15.5128 16.6689 15.0908 17.0908C14.6689 17.5128 14.0967 17.75 13.5 17.75H4.5C3.90326 17.75 3.33114 17.5128 2.90918 17.0908C2.48722 16.6689 2.25 16.0967 2.25 15.5V5C2.25 4.40326 2.48722 3.83114 2.90918 3.40918C3.33114 2.98722 3.90326 2.75 4.5 2.75H5.25C5.25 1.92157 5.92157 1.25 6.75 1.25H11.25C12.0784 1.25 12.75 1.92157 12.75 2.75H13.5Z" fill="#666666"/>
</svg>
