<svg width="20" height="20" viewBox="0 0 20 20" fill="none" xmlns="http://www.w3.org/2000/svg">
<path d="M13.5347 14.7142L9.99914 11.1786L6.4636 14.7142C6.13817 15.0396 5.61053 15.0396 5.28509 14.7142C4.95966 14.3887 4.95966 13.8611 5.28509 13.5356L8.82063 10.0001L5.28509 6.46458C4.95966 6.13914 4.95966 5.61151 5.28509 5.28607C5.61053 4.96063 6.13817 4.96063 6.4636 5.28607L9.99914 8.8216L13.5347 5.28607C13.8601 4.96063 14.3877 4.96063 14.7132 5.28607C15.0386 5.61151 15.0386 6.13914 14.7132 6.46458L11.1776 10.0001L14.7132 13.5356C15.0386 13.8611 15.0386 14.3887 14.7132 14.7142C14.3877 15.0396 13.8601 15.0396 13.5347 14.7142Z" fill="#666666"/>
</svg>
