<svg width="18" height="19" viewBox="0 0 18 19" fill="none" xmlns="http://www.w3.org/2000/svg">
<path d="M15.75 8.75H2.25V14C2.25 14.1989 2.32907 14.3896 2.46973 14.5303C2.61038 14.6709 2.80109 14.75 3 14.75H15C15.1989 14.75 15.3896 14.6709 15.5303 14.5303C15.6709 14.3896 15.75 14.1989 15.75 14V8.75ZM17.25 14C17.25 14.5967 17.0128 15.1689 16.5908 15.5908C16.1689 16.0128 15.5967 16.25 15 16.25H3C2.40326 16.25 1.83114 16.0128 1.40918 15.5908C0.987223 15.1689 0.75 14.5967 0.75 14V4.25C0.75 3.65326 0.987223 3.08114 1.40918 2.65918C1.83114 2.23722 2.40326 2 3 2H5.94727L6.08716 2.00439C6.41125 2.02458 6.72757 2.11498 7.0144 2.26953C7.34229 2.44624 7.62179 2.70114 7.82666 3.01221L8.42944 3.90503L8.43384 3.91235C8.50282 4.01712 8.59705 4.10315 8.70776 4.16211C8.8184 4.22102 8.94205 4.25118 9.06738 4.25H15C15.5967 4.25 16.1689 4.48722 16.5908 4.90918C17.0128 5.33114 17.25 5.90326 17.25 6.5V14ZM2.25 7.25H15.75V6.5C15.75 6.30109 15.6709 6.11038 15.5303 5.96973C15.4072 5.84662 15.2457 5.77068 15.074 5.75366L15 5.75H9.07471C8.70103 5.75239 8.33234 5.66202 8.00244 5.48633C7.67278 5.31075 7.39231 5.0555 7.18579 4.74438L6.57861 3.84497L6.57349 3.83765C6.50525 3.73403 6.41242 3.64899 6.30322 3.59009C6.22134 3.54596 6.13205 3.51733 6.04028 3.50586L5.94727 3.5H3C2.80109 3.5 2.61038 3.57907 2.46973 3.71973C2.32907 3.86038 2.25 4.05109 2.25 4.25V7.25Z" fill="#666666"/>
</svg>
