<svg width="18" height="19" viewBox="0 0 18 19" fill="none" xmlns="http://www.w3.org/2000/svg">
<path d="M7.5 10.2497V15.4997H10.5V10.2497H7.5ZM16.5 14.7497C16.5 15.3464 16.2628 15.9193 15.8408 16.3412C15.4189 16.7631 14.8466 16.9997 14.25 16.9997H3.75C3.15335 16.9997 2.58112 16.7631 2.15918 16.3412C1.73722 15.9193 1.5 15.3464 1.5 14.7497V7.99966C1.5 7.67259 1.57109 7.34935 1.70874 7.05264C1.84648 6.75579 2.04768 6.49266 2.29761 6.2814L7.54395 1.78506L7.54761 1.78214C7.95372 1.43891 8.46828 1.2504 9 1.2504L9.19849 1.25919C9.59289 1.29411 9.97114 1.43266 10.2949 1.66055L10.4524 1.78214L10.4561 1.78506L15.7024 6.2814L15.7939 6.3627C16.0017 6.55868 16.1707 6.79287 16.2913 7.05264C16.4289 7.34935 16.5 7.67259 16.5 7.99966V14.7497ZM12 15.4997H14.25C14.4488 15.4997 14.6396 15.4212 14.7803 15.2807C14.9209 15.14 15 14.9486 15 14.7497V7.99966C15 7.89064 14.9763 7.78289 14.9304 7.68399C14.8845 7.58504 14.8174 7.49733 14.7341 7.42691L14.7305 7.42325L9.48413 2.92691C9.36563 2.82676 9.21941 2.76687 9.06592 2.75333L9 2.7504C8.82276 2.7504 8.65124 2.81323 8.51587 2.92764L8.51514 2.92691L3.26953 7.42325L3.26587 7.42691C3.18256 7.49733 3.11549 7.58504 3.06958 7.68399C3.0237 7.78289 3 7.89064 3 7.99966V14.7497C3 14.9486 3.07907 15.14 3.21973 15.2807C3.36036 15.4212 3.55118 15.4997 3.75 15.4997H6V10.2497C6.00009 9.85196 6.15823 9.47034 6.43945 9.18912C6.72074 8.90792 7.10226 8.74966 7.5 8.74966H10.5C10.8977 8.74966 11.2793 8.90792 11.5605 9.18912C11.8418 9.47034 11.9999 9.85196 12 10.2497V15.4997Z" fill="#666666"/>
</svg>
