<svg width="16" height="16" viewBox="0 0 16 16" fill="none" xmlns="http://www.w3.org/2000/svg">
<path d="M12.6667 6.66675C12.6667 5.42907 12.1753 4.24179 11.3001 3.36662C10.4796 2.54608 9.38465 2.0631 8.23112 2.00594L8 2.00008C6.76232 2.00008 5.57504 2.49145 4.69987 3.36662C3.8247 4.24179 3.33333 5.42907 3.33333 6.66675C3.33333 8.10629 4.14453 9.65816 5.19857 11.0431C6.21711 12.3812 7.38636 13.4643 8 13.9968C8.61364 13.4643 9.78289 12.3812 10.8014 11.0431C11.8555 9.65816 12.6667 8.10629 12.6667 6.66675ZM9.33333 6.66675C9.33333 5.93037 8.73638 5.33342 8 5.33342C7.26362 5.33342 6.66667 5.93037 6.66667 6.66675C6.66667 7.40313 7.26362 8.00008 8 8.00008C8.73638 8.00008 9.33333 7.40313 9.33333 6.66675ZM10.6667 6.66675C10.6667 8.13951 9.47276 9.33342 8 9.33342C6.52724 9.33342 5.33333 8.13951 5.33333 6.66675C5.33333 5.19399 6.52724 4.00008 8 4.00008C9.47276 4.00008 10.6667 5.19399 10.6667 6.66675ZM14 6.66675C14 8.55586 12.9649 10.4021 11.8626 11.8503C10.745 13.3188 9.47345 14.4873 8.83659 15.0372C8.82524 15.047 8.81342 15.0568 8.80143 15.0658C8.59932 15.2178 8.35864 15.3085 8.10807 15.3289L8 15.3334C7.71096 15.3334 7.42959 15.2395 7.19857 15.0658C7.18658 15.0568 7.17477 15.047 7.16341 15.0372C6.52655 14.4873 5.25499 13.3188 4.13737 11.8503C3.03508 10.4021 2 8.55586 2 6.66675C2 5.07545 2.63194 3.54913 3.75716 2.42391C4.88238 1.29869 6.4087 0.666748 8 0.666748C9.5913 0.666748 11.1176 1.29869 12.2428 2.42391C13.3681 3.54913 14 5.07545 14 6.66675Z" fill="#666666"/>
</svg>
