<svg width="18" height="19" viewBox="0 0 18 19" fill="none" xmlns="http://www.w3.org/2000/svg">
<path d="M9.64946 15.875C9.85659 15.5163 10.3154 15.3932 10.6741 15.6003C11.0328 15.8074 11.1558 16.2663 10.9488 16.625C10.7513 16.967 10.4668 17.2508 10.1248 17.4482C9.78277 17.6457 9.39474 17.75 8.9998 17.75C8.60493 17.75 8.21678 17.6457 7.8748 17.4482C7.5329 17.2508 7.24899 16.9669 7.05156 16.625C6.84443 16.2663 6.96751 15.8075 7.32622 15.6003C7.68485 15.3935 8.14304 15.5165 8.35014 15.875C8.41596 15.989 8.51082 16.0838 8.6248 16.1497C8.73876 16.2154 8.86822 16.25 8.9998 16.25C9.13137 16.25 9.26084 16.2154 9.3748 16.1497C9.4888 16.0838 9.58363 15.989 9.64946 15.875ZM12.7498 6.5C12.7498 5.50557 12.355 4.55187 11.6519 3.84863C10.9486 3.14537 9.99436 2.75 8.9998 2.75C8.00531 2.75005 7.05165 3.14541 6.34843 3.84863C5.64523 4.55189 5.2498 5.50548 5.2498 6.5C5.2498 8.26569 4.97305 9.49865 4.5247 10.4478C4.08186 11.3852 3.4942 11.9904 3.00053 12.5H14.9998C14.5051 11.9901 13.9183 11.3846 13.4756 10.4478C13.0271 9.49848 12.7498 8.26561 12.7498 6.5ZM14.2498 6.5C14.2498 8.10851 14.5017 9.10917 14.8313 9.80688C15.0792 10.3315 15.3846 10.7167 15.7322 11.0938L16.0933 11.4731L16.1094 11.4907C16.3051 11.7057 16.4342 11.9728 16.4808 12.2598C16.5273 12.5466 16.4898 12.8407 16.3724 13.1064C16.2548 13.3722 16.0622 13.5983 15.8186 13.7568C15.6054 13.8956 15.3608 13.9781 15.1082 13.9963L14.9998 14H2.9998C2.70909 13.9998 2.42442 13.915 2.18095 13.7561C1.93748 13.5972 1.74526 13.371 1.62798 13.105C1.51073 12.839 1.47337 12.5444 1.52031 12.2576C1.56728 11.9708 1.69656 11.7039 1.89238 11.4893L1.90776 11.4724C2.4061 10.9579 2.83787 10.5063 3.16826 9.80688C3.47725 9.15277 3.71798 8.23239 3.74687 6.79443L3.7498 6.5C3.7498 5.10761 4.30332 3.77192 5.28789 2.78735C6.27238 1.803 7.60761 1.25005 8.9998 1.25C10.3921 1.25 11.7279 1.80285 12.7124 2.78735C13.697 3.77192 14.2498 5.10761 14.2498 6.5Z" fill="#666666"/>
</svg>
