<svg width="18" height="19" viewBox="0 0 18 19" fill="none" xmlns="http://www.w3.org/2000/svg">
<path d="M15 4.25C15 3.83579 14.6642 3.5 14.25 3.5H3.75C3.33579 3.5 3 3.83579 3 4.25V14.75C3 15.1642 3.33579 15.5 3.75 15.5H14.25C14.6642 15.5 15 15.1642 15 14.75V4.25ZM16.5 14.75C16.5 15.9926 15.4926 17 14.25 17H3.75C2.50736 17 1.5 15.9926 1.5 14.75V4.25C1.5 3.00736 2.50736 2 3.75 2H14.25C15.4926 2 16.5 3.00736 16.5 4.25V14.75Z" fill="#666666"/>
<path d="M6 16.25V2.75C6 2.33579 6.33579 2 6.75 2C7.16421 2 7.5 2.33579 7.5 2.75V16.25C7.5 16.6642 7.16421 17 6.75 17C6.33579 17 6 16.6642 6 16.25Z" fill="#666666"/>
</svg>
