<svg width="18" height="19" viewBox="0 0 18 19" fill="none" xmlns="http://www.w3.org/2000/svg">
<path d="M13.5 8.75C13.5 5.8505 11.1495 3.5 8.25 3.5C5.3505 3.5 3 5.8505 3 8.75C3 11.6495 5.3505 14 8.25 14C11.1495 14 13.5 11.6495 13.5 8.75ZM15 8.75C15 10.3437 14.4464 11.8074 13.5227 12.9622L16.2803 15.7197C16.5732 16.0126 16.5732 16.4874 16.2803 16.7803C15.9874 17.0732 15.5126 17.0732 15.2197 16.7803L12.4622 14.0227C11.3074 14.9464 9.84372 15.5 8.25 15.5C4.52208 15.5 1.5 12.4779 1.5 8.75C1.5 5.02208 4.52208 2 8.25 2C11.9779 2 15 5.02208 15 8.75Z" fill="#666666"/>
</svg>
