<svg width="18" height="19" viewBox="0 0 18 19" fill="none" xmlns="http://www.w3.org/2000/svg">
<path d="M14.25 13.25C14.25 12.4216 13.5784 11.75 12.75 11.75C11.9216 11.75 11.25 12.4216 11.25 13.25C11.25 14.0784 11.9216 14.75 12.75 14.75C13.5784 14.75 14.25 14.0784 14.25 13.25ZM5.25 2.75C6.64788 2.75 7.82249 3.70608 8.15552 5H14.25C14.6642 5 15 5.33579 15 5.75C15 6.16421 14.6642 6.5 14.25 6.5H8.15552C7.82249 7.79392 6.64788 8.75 5.25 8.75C3.59315 8.75 2.25 7.40685 2.25 5.75C2.25 4.09315 3.59315 2.75 5.25 2.75ZM15.75 13.25C15.75 14.9069 14.4069 16.25 12.75 16.25C11.3521 16.25 10.1775 15.2939 9.84448 14H3.75C3.33579 14 3 13.6642 3 13.25C3 12.8358 3.33579 12.5 3.75 12.5H9.84448C10.1775 11.2061 11.3521 10.25 12.75 10.25C14.4069 10.25 15.75 11.5931 15.75 13.25ZM3.75 5.75C3.75 6.57843 4.42157 7.25 5.25 7.25C6.07843 7.25 6.75 6.57843 6.75 5.75C6.75 4.92157 6.07843 4.25 5.25 4.25C4.42157 4.25 3.75 4.92157 3.75 5.75Z" fill="#666666"/>
</svg>
