<svg width="48" height="48" viewBox="0 0 48 48" fill="none" xmlns="http://www.w3.org/2000/svg">
<g clip-path="url(#clip0_1840_247)">
<path d="M0 8C0 3.58172 3.58172 0 8 0H40C44.4183 0 48 3.58172 48 8V40C48 44.4183 44.4183 48 40 48H8C3.58172 48 0 44.4183 0 40V8Z" fill="#E6EEFF"/>
<g clip-path="url(#clip1_1840_247)">
<mask id="path-2-inside-1_1840_247" fill="white">
<path d="M-2 12.8571C-2 11.2792 -0.720813 10 0.857143 10H35.1429C36.7208 10 38 11.2792 38 12.8571V47.1429C38 48.7208 36.7208 50 35.1429 50H0.857144C-0.720813 50 -2 48.7208 -2 47.1429V12.8571Z"/>
</mask>
<path d="M-2 12.8571C-2 11.2792 -0.720813 10 0.857143 10H35.1429C36.7208 10 38 11.2792 38 12.8571V47.1429C38 48.7208 36.7208 50 35.1429 50H0.857144C-0.720813 50 -2 48.7208 -2 47.1429V12.8571Z" fill="white"/>
<rect x="1.8457" y="25.2856" width="3" height="19" rx="0.506827" fill="#FFBD9A"/>
<rect x="7.70801" y="32.2856" width="3" height="12" rx="0.506827" fill="#FFBD9A"/>
<rect x="13.5713" y="17.2856" width="3" height="27" rx="0.506827" fill="#FFBD9A"/>
<rect x="22.2861" y="34.2856" width="10" height="10" rx="5" fill="#FF5B02"/>
<path d="M27.0078 41.2589V37.4172C27.0078 37.2657 27.1307 37.1428 27.2822 37.1428C27.4338 37.1428 27.5566 37.2657 27.5566 37.4172V41.2589C27.5566 41.4104 27.4338 41.5333 27.2822 41.5333C27.1307 41.5333 27.0078 41.4104 27.0078 41.2589Z" fill="white"/>
<path d="M27.2822 37.8053L27.4762 37.2232C27.3758 37.1228 27.2169 37.1166 27.1091 37.2045L27.0882 37.2232M27.0078 41.2589V37.4172C27.0078 37.2657 27.1307 37.1428 27.2822 37.1428C27.4338 37.1428 27.5566 37.2657 27.5566 37.4172V41.2589C27.5566 41.4104 27.4338 41.5333 27.2822 41.5333C27.1307 41.5333 27.0078 41.4104 27.0078 41.2589Z" stroke="white" stroke-width="0.35" stroke-linecap="round" stroke-linejoin="round"/>
<path d="M25.3615 39.0637L29.2031 39.0637C29.3547 39.0637 29.4775 39.1866 29.4775 39.3381C29.4775 39.4897 29.3547 39.6125 29.2031 39.6125L25.3615 39.6125C25.2099 39.6125 25.0871 39.4897 25.0871 39.3381C25.0871 39.1866 25.2099 39.0637 25.3615 39.0637Z" fill="white"/>
<path d="M28.8151 39.3381L29.3971 39.5321C29.4976 39.4317 29.5038 39.2728 29.4159 39.165L29.3971 39.1441M25.3615 39.0637L29.2031 39.0637C29.3547 39.0637 29.4775 39.1866 29.4775 39.3381C29.4775 39.4897 29.3547 39.6125 29.2031 39.6125L25.3615 39.6125C25.2099 39.6125 25.0871 39.4897 25.0871 39.3381C25.0871 39.1866 25.2099 39.0637 25.3615 39.0637Z" stroke="white" stroke-width="0.35" stroke-linecap="round" stroke-linejoin="round"/>
</g>
<path d="M0.857143 10V10.2381H35.1429V10V9.7619H0.857143V10ZM38 12.8571H37.7619V47.1429H38H38.2381V12.8571H38ZM35.1429 50V49.7619H0.857144V50V50.2381H35.1429V50ZM-2 47.1429H-1.7619V12.8571H-2H-2.2381V47.1429H-2ZM0.857144 50V49.7619C-0.589316 49.7619 -1.7619 48.5893 -1.7619 47.1429H-2H-2.2381C-2.2381 48.8523 -0.852309 50.2381 0.857144 50.2381V50ZM38 47.1429H37.7619C37.7619 48.5893 36.5893 49.7619 35.1429 49.7619V50V50.2381C36.8523 50.2381 38.2381 48.8523 38.2381 47.1429H38ZM35.1429 10V10.2381C36.5893 10.2381 37.7619 11.4107 37.7619 12.8571H38H38.2381C38.2381 11.1477 36.8523 9.7619 35.1429 9.7619V10ZM0.857143 10V9.7619C-0.85231 9.7619 -2.2381 11.1477 -2.2381 12.8571H-2H-1.7619C-1.7619 11.4107 -0.589317 10.2381 0.857143 10.2381V10Z" fill="#D6D9D5" mask="url(#path-2-inside-1_1840_247)"/>
</g>
<defs>
<clipPath id="clip0_1840_247">
<path d="M0 8C0 3.58172 3.58172 0 8 0H40C44.4183 0 48 3.58172 48 8V40C48 44.4183 44.4183 48 40 48H8C3.58172 48 0 44.4183 0 40V8Z" fill="white"/>
</clipPath>
<clipPath id="clip1_1840_247">
<path d="M-2 12.8571C-2 11.2792 -0.720813 10 0.857143 10H35.1429C36.7208 10 38 11.2792 38 12.8571V47.1429C38 48.7208 36.7208 50 35.1429 50H0.857144C-0.720813 50 -2 48.7208 -2 47.1429V12.8571Z" fill="white"/>
</clipPath>
</defs>
</svg>
