<svg width="48" height="48" viewBox="0 0 48 48" fill="none" xmlns="http://www.w3.org/2000/svg">
<g clip-path="url(#clip0_1829_202)">
<path d="M0 8C0 3.58172 3.58172 0 8 0H40C44.4183 0 48 3.58172 48 8V40C48 44.4183 44.4183 48 40 48H8C3.58172 48 0 44.4183 0 40V8Z" fill="#E6EEFF"/>
<mask id="path-2-inside-1_1829_202" fill="white">
<path d="M-2 14C-2 11.7909 -0.209139 10 2 10H34C36.2091 10 38 11.7909 38 14V46C38 48.2091 36.2091 50 34 50H2C-0.209138 50 -2 48.2091 -2 46V14Z"/>
</mask>
<path d="M-2 14C-2 11.7909 -0.209139 10 2 10H34C36.2091 10 38 11.7909 38 14V46C38 48.2091 36.2091 50 34 50H2C-0.209138 50 -2 48.2091 -2 46V14Z" fill="white"/>
<path d="M2 10V10.2381H34V10V9.7619H2V10ZM38 14H37.7619V46H38H38.2381V14H38ZM34 50V49.7619H2V50V50.2381H34V50ZM-2 46H-1.7619V14H-2H-2.2381V46H-2ZM2 50V49.7619C-0.0776417 49.7619 -1.7619 48.0776 -1.7619 46H-2H-2.2381C-2.2381 48.3406 -0.340634 50.2381 2 50.2381V50ZM38 46H37.7619C37.7619 48.0776 36.0776 49.7619 34 49.7619V50V50.2381C36.3406 50.2381 38.2381 48.3406 38.2381 46H38ZM34 10V10.2381C36.0776 10.2381 37.7619 11.9224 37.7619 14H38H38.2381C38.2381 11.6594 36.3406 9.7619 34 9.7619V10ZM2 10V9.7619C-0.340635 9.7619 -2.2381 11.6594 -2.2381 14H-2H-1.7619C-1.7619 11.9224 -0.0776424 10.2381 2 10.2381V10Z" fill="#D6D9D5" mask="url(#path-2-inside-1_1829_202)"/>
<g clip-path="url(#clip1_1829_202)">
<path d="M8.30699 16.9745C8.39998 16.8815 8.55069 16.8815 8.64368 16.9745C8.73666 17.0675 8.73666 17.2182 8.64368 17.3112L6.02463 19.9303C5.93165 20.0232 5.78093 20.0232 5.68795 19.9303L4.49747 18.7398C4.40449 18.6468 4.40449 18.4961 4.49747 18.4031C4.59045 18.3101 4.74117 18.3101 4.83415 18.4031L5.85629 19.4252L8.30699 16.9745Z" fill="#16A34A" stroke="#16A34A" stroke-linecap="round" stroke-linejoin="round"/>
</g>
<rect opacity="0.3" x="13.2373" y="16.7144" width="19.0476" height="3.71429" rx="0.952381" fill="#16A34A"/>
<g clip-path="url(#clip2_1829_202)">
<path d="M8.30699 28.403C8.39998 28.31 8.55069 28.31 8.64368 28.403C8.73666 28.496 8.73666 28.6467 8.64368 28.7397L6.02463 31.3587C5.93165 31.4517 5.78093 31.4517 5.68795 31.3587L4.49747 30.1682C4.40449 30.0753 4.40449 29.9245 4.49747 29.8316C4.59045 29.7386 4.74117 29.7386 4.83415 29.8316L5.85629 30.8537L8.30699 28.403Z" fill="#16A34A" stroke="#16A34A" stroke-linecap="round" stroke-linejoin="round"/>
</g>
<rect opacity="0.3" x="13.2373" y="28.1428" width="19.0476" height="3.71429" rx="0.952381" fill="#16A34A"/>
<rect x="3.71387" y="38.5715" width="5.71429" height="5.71429" rx="2.85714" stroke="#666666" stroke-width="0.238095" stroke-linecap="round" stroke-dasharray="0.95 0.95"/>
<rect x="13.2373" y="39.5715" width="19.0476" height="3.71429" rx="0.952381" stroke="#666666" stroke-width="0.238095" stroke-linecap="round" stroke-dasharray="1.9 1.9"/>
</g>
<defs>
<clipPath id="clip0_1829_202">
<path d="M0 8C0 3.58172 3.58172 0 8 0H40C44.4183 0 48 3.58172 48 8V40C48 44.4183 44.4183 48 40 48H8C3.58172 48 0 44.4183 0 40V8Z" fill="white"/>
</clipPath>
<clipPath id="clip1_1829_202">
<rect width="5.71429" height="5.71429" fill="white" transform="translate(3.71387 15.7144)"/>
</clipPath>
<clipPath id="clip2_1829_202">
<rect width="5.71429" height="5.71429" fill="white" transform="translate(3.71387 27.1428)"/>
</clipPath>
</defs>
</svg>
