<svg width="18" height="19" viewBox="0 0 18 19" fill="none" xmlns="http://www.w3.org/2000/svg">
<path d="M13.5 10.25C13.3011 10.25 13.1104 10.3291 12.9697 10.4697C12.8291 10.6104 12.75 10.8011 12.75 11L12.7537 11.074C12.7707 11.2457 12.8466 11.4072 12.9697 11.5303C13.1104 11.6709 13.3011 11.75 13.5 11.75H15.75V10.25H13.5ZM3.75 6.5C3.49168 6.5 3.23894 6.45277 3 6.36816V14.75C3 14.9489 3.07907 15.1396 3.21973 15.2803C3.36038 15.4209 3.55109 15.5 3.75 15.5H15V13.25H13.5C12.9033 13.25 12.3311 13.0128 11.9092 12.5908C11.54 12.2217 11.3122 11.7376 11.261 11.2227L11.25 11C11.25 10.4033 11.4872 9.83114 11.9092 9.40918C12.3311 8.98722 12.9033 8.75 13.5 8.75H15V6.5H3.75ZM3.75 3.5C3.55109 3.5 3.36038 3.57907 3.21973 3.71973C3.07907 3.86038 3 4.05109 3 4.25L3.00366 4.32397C3.02068 4.49572 3.09662 4.65717 3.21973 4.78027C3.36038 4.92093 3.55109 5 3.75 5H13.5V3.5H3.75ZM15 5C15.3978 5 15.7792 5.15815 16.0605 5.43945C16.3419 5.72076 16.5 6.10218 16.5 6.5V8.95215C16.6124 9.01708 16.7172 9.09609 16.8105 9.18945C17.0919 9.47076 17.25 9.85218 17.25 10.25V11.75C17.25 12.1478 17.0919 12.5292 16.8105 12.8105C16.7173 12.9038 16.6123 12.9822 16.5 13.0471V15.5C16.5 15.8978 16.3419 16.2792 16.0605 16.5605C15.7792 16.8419 15.3978 17 15 17H3.75C3.15326 17 2.58114 16.7628 2.15918 16.3408C1.73722 15.9189 1.5 15.3467 1.5 14.75V4.25C1.5 3.65326 1.73722 3.08114 2.15918 2.65918C2.58114 2.23722 3.15326 2 3.75 2H13.5C13.8978 2 14.2792 2.15815 14.5605 2.43945C14.8419 2.72076 15 3.10218 15 3.5V5Z" fill="#666666"/>
</svg>
