<svg width="20" height="20" viewBox="0 0 20 20" fill="none" xmlns="http://www.w3.org/2000/svg">
<path d="M10 11.5C11.1492 11.5001 12.2519 11.957 13.0645 12.7695C13.8768 13.5821 14.3339 14.684 14.334 15.833V17.5C14.334 18.0521 13.886 18.4996 13.334 18.5C12.7817 18.5 12.334 18.0523 12.334 17.5V15.833C12.3339 15.2144 12.0877 14.6211 11.6504 14.1836C11.2129 13.7461 10.6187 13.5001 10 13.5H5C4.38136 13.5001 3.78808 13.7462 3.35059 14.1836C2.91308 14.6211 2.66708 15.2143 2.66699 15.833V17.5C2.66699 18.0522 2.21913 18.4998 1.66699 18.5C1.11471 18.5 0.666992 18.0523 0.666992 17.5V15.833C0.667078 14.6839 1.12394 13.5821 1.93652 12.7695C2.74909 11.9571 3.85092 11.5001 5 11.5H10ZM15.834 5.66699C16.386 5.66734 16.834 6.11492 16.834 6.66699V8.16699H18.334C18.886 8.16734 19.334 8.61492 19.334 9.16699C19.3338 9.71891 18.8859 10.1666 18.334 10.167H16.834V11.667C16.8338 12.2189 16.3859 12.6666 15.834 12.667C15.2818 12.667 14.8342 12.2191 14.834 11.667V10.167H13.334C12.7818 10.167 12.3342 9.71913 12.334 9.16699C12.334 8.61471 12.7817 8.16699 13.334 8.16699H14.834V6.66699C14.834 6.11471 15.2817 5.66699 15.834 5.66699ZM7.5 1.5C9.89298 1.50018 11.8338 3.44003 11.834 5.83301C11.834 8.22613 9.89308 10.1668 7.5 10.167C5.10692 10.1668 3.16699 8.22613 3.16699 5.83301C3.16717 3.44003 5.10702 1.50018 7.5 1.5ZM7.5 3.5C6.21159 3.50018 5.16717 4.5446 5.16699 5.83301C5.16699 7.12156 6.21149 8.16682 7.5 8.16699C8.78851 8.16682 9.83398 7.12156 9.83398 5.83301C9.83381 4.5446 8.78841 3.50018 7.5 3.5Z" fill="white"/>
</svg>
