<svg width="13" height="13" viewBox="0 0 13 13" fill="none" xmlns="http://www.w3.org/2000/svg">
<path d="M4.33464 9.47917C4.33464 8.73128 3.72835 8.125 2.98047 8.125C2.23258 8.125 1.6263 8.73128 1.6263 9.47917C1.6263 10.2271 2.23258 10.8333 2.98047 10.8333C3.72835 10.8333 4.33464 10.2271 4.33464 9.47917ZM11.3763 9.47917C11.3763 8.73128 10.77 8.125 10.0221 8.125C9.27425 8.125 8.66797 8.73128 8.66797 9.47917C8.66797 10.2271 9.27425 10.8333 10.0221 10.8333C10.77 10.8333 11.3763 10.2271 11.3763 9.47917ZM5.95964 9.47917V7.80762L4.49333 6.34131C4.38229 6.23028 4.32509 6.07635 4.33622 5.91972C4.34741 5.76318 4.42596 5.61927 4.55151 5.52511L6.71818 3.90011L6.7642 3.8689C6.87479 3.80251 7.00615 3.77762 7.13448 3.7996C7.28118 3.82475 7.41109 3.90903 7.49365 4.03288L8.41618 5.41667H9.20963C9.50879 5.41667 9.7513 5.65918 9.7513 5.95833C9.7513 6.25749 9.50879 6.5 9.20963 6.5H8.1263C7.94519 6.5 7.77608 6.40948 7.67562 6.25879L6.90967 5.10986L5.70044 6.01652L6.88428 7.20036C6.98586 7.30194 7.04297 7.43967 7.04297 7.58333V9.47917C7.04297 9.77832 6.80046 10.0208 6.5013 10.0208C6.20215 10.0208 5.95964 9.77832 5.95964 9.47917ZM7.04297 2.70833C7.04297 2.11002 7.52799 1.625 8.1263 1.625C8.72461 1.625 9.20963 2.11002 9.20963 2.70833C9.20963 3.30664 8.72461 3.79167 8.1263 3.79167C7.52799 3.79167 7.04297 3.30664 7.04297 2.70833ZM5.41797 9.47917C5.41797 10.8254 4.32666 11.9167 2.98047 11.9167C1.63427 11.9167 0.542969 10.8254 0.542969 9.47917C0.542969 8.13297 1.63427 7.04167 2.98047 7.04167C4.32666 7.04167 5.41797 8.13297 5.41797 9.47917ZM12.4596 9.47917C12.4596 10.8254 11.3683 11.9167 10.0221 11.9167C8.67594 11.9167 7.58463 10.8254 7.58463 9.47917C7.58463 8.13297 8.67594 7.04167 10.0221 7.04167C11.3683 7.04167 12.4596 8.13297 12.4596 9.47917Z" fill="#764782"/>
</svg>
