<svg width="13" height="13" viewBox="0 0 13 13" fill="none" xmlns="http://www.w3.org/2000/svg">
<path d="M7.30835 2.96842C7.90418 2.96842 8.39168 2.48092 8.39168 1.88509C8.39168 1.28926 7.90418 0.801758 7.30835 0.801758C6.71251 0.801758 6.22501 1.28926 6.22501 1.88509C6.22501 2.48092 6.71251 2.96842 7.30835 2.96842ZM5.59126 9.46842L5.90001 8.11426L7.03751 9.19759V11.9059C7.03751 12.2038 7.28126 12.4476 7.57918 12.4476C7.8771 12.4476 8.12085 12.2038 8.12085 11.9059V8.85093C8.12085 8.55301 8.00168 8.27134 7.78501 8.06551L6.98335 7.30176L7.30835 5.67676C7.88793 6.34842 8.72751 6.83051 9.67001 6.98217C9.99501 7.03092 10.2875 6.77092 10.2875 6.44051C10.2875 6.17509 10.0925 5.95301 9.8271 5.90967C9.00376 5.77426 8.32126 5.28676 7.95835 4.64759L7.41668 3.78092C7.20001 3.45592 6.87501 3.23926 6.49585 3.23926C6.33335 3.23926 6.22501 3.29342 6.06251 3.29342L3.90668 4.20342C3.50585 4.37676 3.24585 4.76676 3.24585 5.20551V6.48926C3.24585 6.78717 3.4896 7.03092 3.78751 7.03092C4.08543 7.03092 4.32918 6.78717 4.32918 6.48926V5.18926L5.30418 4.81009L4.43751 9.19759L2.31418 8.76426C2.02168 8.70468 1.7346 8.89426 1.67501 9.18676V9.20842C1.61543 9.50093 1.80501 9.78801 2.09751 9.84759L4.32376 10.2918C4.89793 10.4055 5.46126 10.0426 5.59126 9.46842Z" fill="#0C6F2F"/>
</svg>
