<svg width="13" height="13" viewBox="0 0 13 13" fill="none" xmlns="http://www.w3.org/2000/svg">
<path d="M3.30828 3.01167C3.95286 3.0875 4.40786 3.32583 4.8737 3.79167L5.41536 4.33333L3.65495 6.09375C3.82286 6.15875 3.95828 6.24 4.07203 6.305C4.27245 6.42958 4.39161 6.5 4.69495 6.5C4.99828 6.5 5.11745 6.42958 5.31786 6.305C5.56703 6.15875 5.90286 5.95833 6.50412 5.95833C7.10536 5.95833 7.4412 6.15875 7.68495 6.305C7.88536 6.42417 8.00995 6.5 8.30787 6.5C8.60578 6.5 8.73036 6.42958 8.93078 6.305C8.99578 6.26708 9.07161 6.22375 9.15286 6.18042L5.67536 2.70833C4.99286 2.02583 4.3537 1.73333 3.4112 1.65208C3.03203 1.61958 2.70703 1.92833 2.70703 2.3075V2.35625C2.70703 2.6975 2.97245 2.96833 3.30828 3.01167ZM11.5633 10.2429C11.4712 10.2104 11.3899 10.1617 11.2924 10.0967C11.0487 9.95042 10.7129 9.75 10.1116 9.75C9.51036 9.75 9.17453 9.95042 8.93078 10.0967C8.73036 10.2212 8.60578 10.2917 8.30787 10.2917C8.00995 10.2917 7.88536 10.2158 7.68495 10.0967C7.4412 9.95042 7.10536 9.75 6.50412 9.75C5.90286 9.75 5.56703 9.95042 5.31786 10.0967C5.11745 10.2212 4.99828 10.2917 4.69495 10.2917C4.39161 10.2917 4.27245 10.2212 4.07203 10.0967C3.82828 9.95042 3.49245 9.75 2.8912 9.75C2.28995 9.75 1.95411 9.95042 1.70495 10.0967C1.60745 10.1562 1.5262 10.205 1.43411 10.2429C1.22828 10.3133 1.08203 10.4867 1.08203 10.7033V10.7683C1.08203 11.1312 1.43953 11.3804 1.7862 11.2613C1.98661 11.1908 2.13828 11.0988 2.26828 11.0229C2.4687 10.9038 2.59328 10.8333 2.8912 10.8333C3.18911 10.8333 3.3137 10.9038 3.51411 11.0283C3.75786 11.1746 4.0937 11.375 4.69495 11.375C5.2962 11.375 5.63203 11.1746 5.8812 11.0283C6.08161 10.9038 6.20078 10.8333 6.50412 10.8333C6.80203 10.8333 6.92661 10.9092 7.12703 11.0283C7.37078 11.1746 7.70661 11.375 8.30787 11.375C8.90911 11.375 9.23953 11.1746 9.4887 11.0283C9.68912 10.9038 9.80828 10.8333 10.1116 10.8333C10.4095 10.8333 10.5341 10.9092 10.7345 11.0283C10.8591 11.1042 11.0108 11.1962 11.2112 11.2667C11.5524 11.3858 11.9154 11.1367 11.9154 10.7738V10.7088C11.9154 10.4867 11.7691 10.3133 11.5633 10.2429ZM1.68328 8.85625C1.93786 8.78583 2.12203 8.6775 2.2737 8.59083C2.47411 8.46625 2.5987 8.39583 2.89661 8.39583C3.19453 8.39583 3.31911 8.47167 3.51953 8.59083C3.76328 8.73708 4.09911 8.9375 4.70036 8.9375C5.30161 8.9375 5.63745 8.73708 5.8812 8.59083C6.08161 8.46625 6.20078 8.39583 6.50412 8.39583C6.80203 8.39583 6.92661 8.47167 7.12703 8.59083C7.37078 8.73708 7.70661 8.9375 8.30787 8.9375C8.90911 8.9375 9.24495 8.73708 9.4887 8.59083C9.68912 8.46625 9.80828 8.39583 10.1116 8.39583C10.4095 8.39583 10.5341 8.47167 10.7345 8.59083C10.8591 8.66667 11.0054 8.75333 11.1949 8.82375C11.5362 8.94833 11.9045 8.69375 11.9045 8.33083V8.26583C11.9045 8.04917 11.7583 7.87583 11.5579 7.8C11.4658 7.7675 11.3845 7.71875 11.2816 7.65917C11.0379 7.51292 10.702 7.3125 10.1008 7.3125C9.49953 7.3125 9.1637 7.51292 8.91995 7.65917C8.71953 7.78375 8.59495 7.85417 8.29703 7.85417C7.99911 7.85417 7.87453 7.77833 7.67411 7.65917C7.43037 7.51292 7.09453 7.3125 6.49328 7.3125C5.89203 7.3125 5.5562 7.51292 5.31245 7.65917C5.11203 7.78375 4.99286 7.85417 4.68953 7.85417C4.39161 7.85417 4.26703 7.77833 4.06661 7.65917C3.82286 7.51292 3.48703 7.3125 2.88578 7.3125C2.28453 7.3125 1.9487 7.51292 1.70495 7.65917C1.60745 7.71875 1.5262 7.7675 1.43411 7.80542C1.22828 7.87583 1.08203 8.04917 1.08203 8.26583V8.39042C1.08203 8.70458 1.37995 8.94292 1.68328 8.85625Z" fill="#935F07"/>
<path d="M8.9362 4.33333C9.68408 4.33333 10.2904 3.72705 10.2904 2.97917C10.2904 2.23128 9.68408 1.625 8.9362 1.625C8.18831 1.625 7.58203 2.23128 7.58203 2.97917C7.58203 3.72705 8.18831 4.33333 8.9362 4.33333Z" fill="#935F07"/>
</svg>
